<?xml version="1.0" encoding="UTF-8" standalone="no" ?>
<!DOCTYPE svg PUBLIC "-//W3C//DTD SVG 1.1//EN" "http://www.w3.org/Graphics/SVG/1.1/DTD/svg11.dtd">
<svg xmlns="http://www.w3.org/2000/svg" xmlns:xlink="http://www.w3.org/1999/xlink" version="1.1" width="506" height="506" viewBox="0 0 506 506" xml:space="preserve">
<desc>Created with Fabric.js 4.6.0</desc>
<defs>
</defs>
<g transform="matrix(1 0 0 1 253 253)" id="nmK5q-3cvivbPzA99kE5f"  >
<path style="stroke: rgb(255,255,255); stroke-width: 0; stroke-dasharray: none; stroke-linecap: butt; stroke-dashoffset: 0; stroke-linejoin: miter; stroke-miterlimit: 4; fill: rgb(0,0,0); fill-rule: nonzero; opacity: 1;" vector-effect="non-scaling-stroke"  transform=" translate(-247, -247)" d="M 247 0 C 383.344 0 494 110.656 494 247 C 494 383.344 383.344 494 247 494 C 110.656 494 0 383.344 0 247 C 0 110.656 110.656 0 247 0 z" stroke-linecap="round" />
</g>
<g transform="matrix(1 0 0 1 370.87 453.25)" id="wYzxLOm2fSsaMKiWpK_Ux"  >
<path style="stroke: rgb(255,255,255); stroke-width: 0; stroke-dasharray: none; stroke-linecap: butt; stroke-dashoffset: 0; stroke-linejoin: miter; stroke-miterlimit: 4; fill: rgb(255,255,255); fill-rule: nonzero; opacity: 1;" vector-effect="non-scaling-stroke"  transform=" translate(0, 0)" d="M 15.42212 7.59639 C -8.32788 22.17972 -10.90006 22.5 -10.90006 22.5 L -27.56673 2.5 L 20.766599999999997 -22.5 C 20.766599999999997 -22.5 39.17211999999999 -6.98695 15.422119999999996 7.5963899999999995 z" stroke-linecap="round" />
</g>
<g transform="matrix(0.83 0 0 1.13 268.97 300.15)" id="KzZF0GzvzWAfLe3jB0BXB"  >
<path style="stroke: rgb(255,255,255); stroke-width: 0; stroke-dasharray: none; stroke-linecap: butt; stroke-dashoffset: 0; stroke-linejoin: miter; stroke-miterlimit: 4; fill: rgb(255,255,255); fill-rule: nonzero; opacity: 1;" vector-effect="non-scaling-stroke"  transform=" translate(0, 0)" d="M -141.70695 -141.70695 L 141.70695 -141.70695 L 141.70695 141.70695 L -141.70695 141.70695 z" stroke-linecap="round" />
</g>
<g transform="matrix(1 0 0 1 253 253)" id="DN28hdemAeyQm6SEefFjZ"  >
<path style="stroke: rgb(255,255,255); stroke-width: 0; stroke-dasharray: none; stroke-linecap: butt; stroke-dashoffset: 0; stroke-linejoin: miter; stroke-miterlimit: 4; fill: rgb(0,0,0); fill-rule: nonzero; opacity: 1;" vector-effect="non-scaling-stroke"  transform=" translate(-247, -247)" d="M 230.82307 0.13292 C 229.7607 0.22949000000000003 226.38045 0.56746 223.33822 0.8088700000000001 C 153.1738 7.13384 87.452 44.98713 45.82659000000001 103.16723999999999 C 22.64770000000001 135.51635 7.822880000000012 172.21085 2.2213100000000097 211.07807 C 0.2414500000000097 224.64539 9.769962616701378e-15 228.65281 9.769962616701378e-15 247.04834 C 9.769962616701378e-15 265.44388 0.24145000000000977 269.45131 2.2213100000000097 283.01860999999997 C 15.64575000000001 375.76881 81.65728000000001 453.69635999999997 171.18573 482.56915 C 187.21779 487.73535 204.11906 491.25995 223.33822 493.38437 C 230.82307 494.20517 263.17693 494.20517 270.66178 493.38437 C 303.83656 489.71492 331.94096 481.50694 359.65904 467.36024 C 363.9085 465.18753999999996 364.72942 464.60814999999997 364.14995 464.12532999999996 C 363.76364 463.83563 345.65513 439.54965999999996 323.92493 410.19406 L 284.42425000000003 356.84217 L 234.92767000000003 283.598 C 207.69248000000005 243.33061 185.28622000000004 210.40211 185.09307000000004 210.40211 C 184.89991000000003 210.35383 184.70676000000003 242.89605999999998 184.61018000000004 282.63235 C 184.46531000000004 352.20707 184.41702000000004 355.00744 183.54781000000006 356.64903999999996 C 182.29229000000007 359.01487 181.32650000000007 359.98051 179.29835000000006 361.04272 C 177.75309000000004 361.81523999999996 176.40099000000006 361.96009 169.10930000000005 361.96009 L 160.75524000000004 361.96009 L 158.53393000000005 360.55991 C 157.08525000000006 359.64254 156.02288000000004 358.43549 155.29854000000006 357.03531 L 154.28446000000005 354.86260999999996 L 154.38104000000004 258.0567 L 154.52591000000004 161.20250999999996 L 156.02288000000004 159.31950999999995 C 156.79551000000004 158.30557999999996 158.43735000000004 157.00195999999994 159.59629000000004 156.37428999999995 C 161.57615000000004 155.40863999999993 162.34878000000003 155.31207999999995 170.70284000000004 155.31207999999995 C 180.55387000000005 155.31207999999995 182.19570000000004 155.69832999999994 184.75504000000004 158.49870999999996 C 185.47938000000005 159.27122999999995 212.27997000000005 199.63517999999996 244.34409000000005 248.25540999999996 C 276.40822000000003 296.87562999999994 320.25494000000003 363.26372999999995 341.79199000000006 395.85425 L 380.90636000000006 455.09657 L 382.88622000000004 453.79294999999996 C 400.41525 442.39833 418.95836 426.17549999999994 433.63832 409.27671 C 464.88153 373.40299999999996 485.01818000000003 329.65927999999997 491.77869000000004 283.01863 C 493.75855 269.45131 494.00000000000006 265.44388999999995 494.00000000000006 247.04835999999997 C 494.00000000000006 228.65281999999996 493.75855000000007 224.64538999999996 491.77869000000004 211.07808999999997 C 478.35425000000004 118.32788999999997 412.34272000000004 40.40033999999997 322.8142700000001 11.527549999999962 C 307.0236500000001 6.409629999999963 290.2189600000001 2.885029999999963 271.38612000000006 0.7606099999999625 C 266.75034000000005 0.27778999999996246 234.83109000000007 -0.2533200000000375 230.82307000000006 0.13293999999996253 z M 331.94096 149.51819 C 334.25885 150.67696 336.14213 152.89794 336.81818000000004 155.21549000000002 C 337.20449 156.47083 337.30107000000004 183.31576 337.20449 243.81342 L 337.05962 330.6249 L 321.7519 307.15973 L 306.39588999999995 283.69456 L 306.39588999999995 220.58967 C 306.39588999999995 179.79117000000002 306.58904999999993 156.8571 306.87877999999995 155.74661000000003 C 307.65140999999994 153.04281000000003 309.34153999999995 150.91839000000004 311.65942999999993 149.66304000000002 C 313.6392899999999 148.64911000000004 314.36362999999994 148.55255000000002 321.94505999999996 148.55255000000002 C 329.09187999999995 148.55255000000002 330.34740999999997 148.64912000000004 331.94094999999993 149.51820000000004 z" stroke-linecap="round" />
</g>
</svg>